<?xml version="1.0" encoding="utf-8"?>
<!-- Generator: Adobe Illustrator 24.3.0, SVG Export Plug-In . SVG Version: 6.00 Build 0)  -->
<svg version="1.1" id="Layer_1" xmlns="http://www.w3.org/2000/svg" xmlns:xlink="http://www.w3.org/1999/xlink" x="0px" y="0px"
	 viewBox="0 0 144 144" style="enable-background:new 0 0 144 144;" xml:space="preserve">
<style type="text/css">
	.st0{fill:#0B5FAA;}
	.st1{fill:#0D74E7;}
	.st2{opacity:0.9;fill:url(#SVGID_1_);}
	.st3{fill:#4B8BBE;}
	.st4{fill:#FFE873;}
</style>
<polygon class="st0" points="128.6,44.5 128.6,107.5 92.2,128.5 88.5,130.6 74,139 19.4,107.5 19.4,44.5 74,13 "/>
<polygon class="st1" points="20,42 20,102 72,132 124,102 124,42 72,12 "/>
<linearGradient id="SVGID_1_" gradientUnits="userSpaceOnUse" x1="44.9201" y1="61.4311" x2="181.9672" y2="169.0331">
	<stop  offset="0" style="stop-color:#000000;stop-opacity:0.3"/>
	<stop  offset="1" style="stop-color:#FFFFFF;stop-opacity:0.5"/>
</linearGradient>
<path class="st2" d="M128.6,72.7v34.8l-36.3,21L74,139L36.3,78.7l14.1-14.2l7.8,1.3L74,62.7c0,0,6.3-7.7,6.6-8.7
	c0.4-1.1-2-8.5-2.3-8.6c-0.2-0.1-3.8-1.7-6.1-2.8c0,0,1.6-1.8,5.6-5C82.8,33.7,111.4,59.9,128.6,72.7z"/>
<g id="Py_logo">
	<g>
		<g>
			<path class="st3" d="M84.2,69.8c5.7-2.6,6.5-22.2,3.2-28c-4.4-7.6-25.2-6-31.8-0.6c-0.8,2.7-0.7,7.6-0.6,11.6h20.8v1.6H54.9
				c0,0.1-9.2,0.1-9.2,0.1c-15.9,0-15.5,34.5,5.4,34.5c0,0,0.8-7.6,2.1-11.5C57.4,65.6,74.8,74,84.2,69.8z M62.5,49.7
				c-2.4,0-4.3-1.9-4.3-4.3c0-2.4,1.9-4.3,4.3-4.3c2.4,0,4.3,1.9,4.3,4.3C66.9,47.8,64.9,49.7,62.5,49.7z"/>
			<path class="st4" d="M92.2,55.1c0,0-0.5,7.6-1.9,11.5c-4.2,11.8-21.6,3.4-31,7.6c-5.7,2.6-6.5,22.2-3.2,28
				c4.4,7.6,25.2,6,31.8,0.6c0.8-2.7,0.7-7.5,0.6-11.6H67.8v-1.6h20.8c0-0.1,10.2-0.1,10.2-0.1C113.4,89.6,114.7,55.1,92.2,55.1z
				 M80.2,93.5c2.4,0,4.3,1.9,4.3,4.3c0,2.4-1.9,4.3-4.3,4.3s-4.3-1.9-4.3-4.3C75.9,95.4,77.8,93.5,80.2,93.5z"/>
		</g>
	</g>
	<g>
	</g>
	<g>
	</g>
	<g>
	</g>
	<g>
	</g>
	<g>
	</g>
	<g>
	</g>
	<g>
	</g>
	<g>
	</g>
	<g>
	</g>
	<g>
	</g>
	<g>
	</g>
	<g>
	</g>
	<g>
	</g>
	<g>
	</g>
	<g>
	</g>
</g>
</svg>
