<?xml version="1.0" encoding="utf-8"?>
<!-- Generator: Adobe Illustrator 24.3.0, SVG Export Plug-In . SVG Version: 6.00 Build 0)  -->
<svg version="1.1" id="Layer_1" xmlns="http://www.w3.org/2000/svg" xmlns:xlink="http://www.w3.org/1999/xlink" width="40px" x="0px" y="0px"
	 viewBox="0 0 144 144" style="enable-background:new 0 0 144 144;" xml:space="preserve">
<style type="text/css">
	.st0{fill:#E0B812;}
	.st1{fill:#F1C40F;}
	.st2{opacity:0.9;fill:url(#SVGID_1_);}
	.st3{fill:#FFFFFF;}
</style>
<polygon class="st0" points="128.6,44.5 128.6,107.5 92.2,128.5 88.5,130.6 74,139 19.4,107.5 19.4,44.5 74,13 "/>
<polygon class="st1" points="20,42 20,102 72,132 124,102 124,42 72,12 "/>
<linearGradient id="SVGID_1_" gradientUnits="userSpaceOnUse" x1="49.2822" y1="64.0999" x2="178.9429" y2="165.9024">
	<stop  offset="0" style="stop-color:#000000;stop-opacity:0.3"/>
	<stop  offset="1" style="stop-color:#FFFFFF;stop-opacity:0.5"/>
</linearGradient>
<path class="st2" d="M128.6,72.7v34.8l-36.3,21L74,139L48.3,81.9l6.6-4.1l3.3-12l6.1-15c0,0,13.5,0.4,9.3-4.2
	c-0.8-0.8,5-1.1,4.7-1.2c-0.2-0.1,6.2-1.4,4-2.4l18.6,6.1L128.6,72.7z"/>
<g>
	<path class="st3" d="M44.6,67.2c0-17.2,13.2-29.3,31.2-29.3c11,0,19.6,4,25.1,11.2L89,59.8c-3.3-4.2-7.2-6.6-12.2-6.6
		c-7.8,0-13.1,5.4-13.1,14s5.3,14,13.1,14c5,0,9-2.4,12.2-6.6l11.9,10.6c-5.5,7.2-14.2,11.2-25.1,11.2
		C57.8,96.5,44.6,84.4,44.6,67.2z"/>
</g>
</svg>
