<?xml version="1.0" encoding="utf-8"?>
<!-- Generator: Adobe Illustrator 24.3.0, SVG Export Plug-In . SVG Version: 6.00 Build 0)  -->
<svg version="1.1" id="Layer_1" xmlns="http://www.w3.org/2000/svg" xmlns:xlink="http://www.w3.org/1999/xlink" x="0px" y="0px"
	 viewBox="0 0 144 144" style="enable-background:new 0 0 144 144;" xml:space="preserve">
<style type="text/css">
	.st0{fill:#299B3E;}
	.st1{fill:#2FBB4F;}
	.st2{opacity:0.9;fill:url(#SVGID_1_);}
	.st3{fill:#FFFFFF;}
</style>
<polygon class="st0" points="128.6,44.5 128.6,107.5 92.2,128.5 88.5,130.6 74,139 19.4,107.5 19.4,44.5 74,13 "/>
<polygon class="st1" points="20,42 20,102 72,132 124,102 124,42 72,12 "/>
<linearGradient id="SVGID_1_" gradientUnits="userSpaceOnUse" x1="50.5332" y1="58.2702" x2="183.9985" y2="163.0599">
	<stop  offset="0" style="stop-color:#000000;stop-opacity:0.3"/>
	<stop  offset="1" style="stop-color:#FFFFFF;stop-opacity:0.5"/>
</linearGradient>
<path class="st2" d="M128.6,72.7v34.8l-36.3,21L74,139L38.4,95.2l12-30.6l7.8,1.3l11,8.3c0,0,13.9-10.7,14.3-11.8
	c0.4-1.1,4.9-5.3,5.2-5.2c11.7,7.7,8.6-9.6,6.3-10.6l10.6-7.4L128.6,72.7z"/>
<g>
	<path class="st3" d="M88.4,95.2l-0.2-25.5L76.1,90.2h-8.3L55.6,70.6v24.6H38.4v-56h15.5L72.2,69l17.8-29.8h15.5l0.2,56H88.4z"/>
</g>
</svg>
